<svg xmlns="http://www.w3.org/2000/svg" viewBox="0 0 200 200">
  <path d="M145,50 C145,50 160,30 170,40 C180,50 160,70 160,70 L175,90 C185,105 185,115 175,120 L160,115 C160,115 150,140 140,150 C130,160 110,160 110,160 L100,190 C100,200 85,200 85,190 L95,160 C95,160 60,160 40,140 C20,120 20,90 40,70 C60,50 90,40 110,40 L120,20 C120,10 135,10 135,20 L130,40 C130,40 140,45 145,50 Z" fill="#8B4513" stroke="#fff" stroke-width="4"/>
  <circle cx="130" cy="70" r="10" fill="#fff"/>
  <circle cx="135" cy="70" r="4" fill="#000"/>
  <path d="M165,100 Q150,110 170,115" stroke="#fff" stroke-width="4" fill="none" stroke-linecap="round"/>
</svg>
